<svg version="1.1" id="Layer_1" xmlns="http://www.w3.org/2000/svg" x="0" y="0" viewBox="0 0 160 100" xml:space="preserve"><style>.st2{fill:#118ee8}</style><path d="M8 99c-3.8 0-7-3.2-7-7V8c0-3.8 3.2-7 7-7h144c3.8 0 7 3.2 7 7v84c0 3.8-3.2 7-7 7H8z" fill-rule="evenodd" clip-rule="evenodd" fill="#fff"/><path d="M152 2c3.3 0 6 2.7 6 6v84c0 3.3-2.7 6-6 6H8c-3.3 0-6-2.7-6-6V8c0-3.3 2.7-6 6-6h144zm0-2H8C3.6 0 0 3.6 0 8v84c0 4.4 3.6 8 8 8h144c4.4 0 8-3.6 8-8V8c0-4.4-3.6-8-8-8z" fill="#e6e6e6"/><circle class="st2" cx="33.1" cy="50" r="19.2"/><path d="M22.1 56.3c6.4 5.9 16-6.2 22.2 0V44.2c-6.2-6.2-15.8 5.9-22.2 0v12.1z" fill="#fff"/><path class="st2" d="M65.9 59.7h-6.7V40.3h6.7c5.4 0 9.8 4.3 9.8 9.7 0 5.3-4.4 9.7-9.8 9.7zm-2.5-4.3h2.4c3 0 5.5-2.4 5.5-5.4 0-3-2.5-5.4-5.5-5.4h-2.4v10.8zm27.7-15.2c-4.5 0-8.1 3.6-8.1 8.1v11.4h4.3v-3.9h7.6v3.9h4.3V48.3c-.1-4.4-3.7-8.1-8.1-8.1zm-3.8 11.3v-3.1c0-2.1 1.7-3.8 3.8-3.8 2.1 0 3.8 1.7 3.8 3.8v3.1h-7.6zm50.6-11.3c-4.5 0-8.1 3.6-8.1 8.1v11.4h4.3v-3.9h7.6v3.9h4.3V48.3c0-4.4-3.6-8.1-8.1-8.1zm-3.8 11.3v-3.1c0-2.1 1.7-3.8 3.8-3.8 2.1 0 3.8 1.7 3.8 3.8v3.1h-7.6zm-11.4-3.2c0-4.5-3.6-8.1-8.1-8.1s-8.1 3.6-8.1 8.1v11.4h4.3V48.3c0-2.1 1.7-3.8 3.8-3.8 2.1 0 3.8 1.7 3.8 3.8v11.4h4.3V48.3z"/></svg>