<svg version="1.1" id="Layer_1" xmlns="http://www.w3.org/2000/svg" x="0" y="0" viewBox="0 0 160 100" xml:space="preserve"><style>.st0{fill-rule:evenodd;clip-rule:evenodd;fill:#fff}</style><path class="st0" d="M8 99c-3.8 0-7-3.2-7-7V8c0-3.8 3.2-7 7-7h144c3.8 0 7 3.2 7 7v84c0 3.8-3.2 7-7 7H8z"/><path d="M152 2c3.3 0 6 2.7 6 6v84c0 3.3-2.7 6-6 6H8c-3.3 0-6-2.7-6-6V8c0-3.3 2.7-6 6-6h144zm0-2H8C3.6 0 0 3.6 0 8v84c0 4.4 3.6 8 8 8h144c4.4 0 8-3.6 8-8V8c0-4.4-3.6-8-8-8z" fill="#e6e6e6"/><path d="M28.8 34.7c8.5 0 15.3 6.9 15.3 15.3 0 8.5-6.9 15.3-15.3 15.3-8.5 0-15.3-6.9-15.3-15.3 0-8.5 6.8-15.3 15.3-15.3z" fill-rule="evenodd" clip-rule="evenodd" fill="#02afd9"/><path class="st0" d="M20 53.4c.2 2.5 1.8 4.4 4.7 4.6 2.8.1 5.6.2 8.4 0 2.6-.2 4.5-2.1 4.7-4.6.1-1.3.1-2.6.1-3.9-.6-3.5-3.6-3.6-3.8-3.6h-9.8c-.3 0-.6-.3-.6-.6s.3-.6.6-.6H34c-.1-2.3-2.7-2.8-3.9-2.8h-.6c-1.6 0-3.2 0-4.8.1-3 .2-4.5 2.1-4.7 4.6-.2 2.3-.2 4.6 0 6.8zm14.7-1.3v.9c0 .3-.3.6-.6.6s-.6-.3-.6-.6v-.8c-.2-.2-.4-.4-.4-.8 0-.5.4-.9 1-.9s1 .4 1 .9c0 .3-.1.6-.4.7z"/><path d="M78.3 40c-5.1 0-9.1 3.9-9.1 8.8s4.1 8.8 9.1 8.8 9.1-3.9 9.1-8.8-4.1-8.8-9.1-8.8zm0 13.7c-2.8 0-5.1-2.2-5.1-4.9s2.2-4.9 5.1-4.9c2.8 0 5.1 2.2 5.1 4.9s-2.3 4.9-5.1 4.9zM62.7 42.3c-1.4-1.3-3.3-2-5.4-2-4.6 0-8.3 3.8-8.3 8.5s3.7 8.5 8.3 8.5c2 0 3.9-.8 5.4-2v1.6c0 2.5-1.9 4.5-4.4 4.5-2.1 0-3.8-.4-5.2-2.1L50.2 62c2.4 2.6 4.8 3.4 8.2 3.4 4.9 0 8.8-3.3 8.8-8.9v-16h-4.5v1.8zM58 53.4c-2.6 0-4.7-2.1-4.7-4.7S55.4 44 58 44s4.7 2.1 4.7 4.7-2.1 4.7-4.7 4.7zm42.2-13.1c-2.1 0-4 .7-5.4 2v-1.8h-4.5v23.3h4.5v-8.5c1.5 1.2 3.4 2 5.4 2 4.6 0 8.3-3.8 8.3-8.5s-3.7-8.5-8.3-8.5zm-.8 13.1c-2.6 0-4.7-2.1-4.7-4.7.1-2.6 2.2-4.7 4.7-4.7 2.6 0 4.7 2.1 4.7 4.7s-2.1 4.7-4.7 4.7zm18.3-13.3c-3.4.3-6.3 1.9-7.2 5.5l3.6.9c1.1-3.3 5.3-4.2 7.1-1.9.5.6.3 1.2-.4 1.6-1.1.5-3.1.3-5.1.9-8.6 2.3-5.9 10.2 1.2 10 2.2-.1 3.9-1.2 5-2.2v1.8h3.5V45.9c0-4.2-4.1-6.2-7.7-5.8zm3.8 11.3s-.9 1.9-4.2 2.3c-3.3.5-3.3-1.6-3-2.1.2-.5 1-1.3 3.7-1.7 2.9-.5 3.5-1.3 3.5-1.3v2.8zm20.2-11.1l-4.8 10.4-5.5-10.5h-4.8l7.9 14.9-4.2 8.6h4.8l11.4-23.4z"/></svg>