<svg xmlns="http://www.w3.org/2000/svg" viewBox="0 0 160 100"><path d="M8 99c-3.8 0-7-3.2-7-7V8c0-3.8 3.2-7 7-7h144c3.8 0 7 3.2 7 7v84c0 3.8-3.2 7-7 7H8z" fill-rule="evenodd" clip-rule="evenodd" fill="#fff"/><path d="M152 2c3.3 0 6 2.7 6 6v84c0 3.3-2.7 6-6 6H8c-3.3 0-6-2.7-6-6V8c0-3.3 2.7-6 6-6h144zm0-2H8C3.6 0 0 3.6 0 8v84c0 4.4 3.6 8 8 8h144c4.4 0 8-3.6 8-8V8c0-4.4-3.6-8-8-8z" fill="#e6e6e6"/><path d="M50.1 64.3c-4.1 3.9-9.6 6-15.2 6-5.7.1-11.2-2.1-15.3-6-8-7.8-8.2-20.6-.4-28.6l.4-.4c4.1-3.9 9.6-6.1 15.3-6 5.7-.1 11.1 2.1 15.2 6 8 7.8 8.2 20.5.5 28.6-.2 0-.3.2-.5.4M34.9 35.9c-7.4-.1-13.4 5.9-13.5 13.2v.6c0 7.4 6 13.5 13.5 13.5 7.4 0 13.5-6 13.5-13.5.3-7.4-5.5-13.6-12.9-13.8h-.6m65.7-1.8L84.2 70.8l-.9-.2c-4.7-.8-5.7-2-7.9-6.8L63 36.9h-4.6v-6.5h17.5v6.5h-4.2l9.9 22.2 9.6-22.2H86v-6.5h14.5v3.7zm39.8 30.2c-8.6 8-21.9 8-30.5 0-8-7.8-8.2-20.6-.4-28.6l.4-.4c8.6-8 21.9-8 30.5 0 8 7.7 8.2 20.5.5 28.5l-.5.5m-15.1-28.4c-7.4-.1-13.4 5.9-13.5 13.3v.6c0 7.4 6 13.5 13.5 13.5 7.4 0 13.5-6 13.5-13.5.3-7.4-5.5-13.6-12.9-13.8-.2-.1-.4-.1-.6-.1" fill-rule="evenodd" clip-rule="evenodd" fill="#4b2489"/></svg>